<svg id="visual" viewBox="0 0 960 300" width="960" height="300" xmlns="http://www.w3.org/2000/svg" xmlns:xlink="http://www.w3.org/1999/xlink" version="1.1"><rect x="0" y="0" width="960" height="300" fill="#E17846"></rect><path d="M0 282L40 279.5C80 277 160 272 240 267.8C320 263.7 400 260.3 480 261.8C560 263.3 640 269.7 720 270C800 270.3 880 264.7 920 261.8L960 259L960 301L920 301C880 301 800 301 720 301C640 301 560 301 480 301C400 301 320 301 240 301C160 301 80 301 40 301L0 301Z" fill="#D2E48C" stroke-linecap="round" stroke-linejoin="miter"></path></svg>