<?xml version="1.0" standalone="no"?>
<svg xmlns:xlink="http://www.w3.org/1999/xlink" id="wave" style="transform:rotate(180deg); transition: 0.3s" viewBox="0 0 1440 100" version="1.1" xmlns="http://www.w3.org/2000/svg"><defs><linearGradient id="sw-gradient-0" x1="0" x2="0" y1="1" y2="0"><stop stop-color="rgba(225, 120, 70, 1)" offset="0%"/><stop stop-color="rgba(225, 120, 70, 1)" offset="100%"/></linearGradient></defs><path style="transform:translate(0, 0px); opacity:1" fill="url(#sw-gradient-0)" d="M0,40L60,33.3C120,27,240,13,360,21.7C480,30,600,60,720,71.7C840,83,960,77,1080,63.3C1200,50,1320,30,1440,28.3C1560,27,1680,43,1800,50C1920,57,2040,53,2160,50C2280,47,2400,43,2520,40C2640,37,2760,33,2880,38.3C3000,43,3120,57,3240,51.7C3360,47,3480,23,3600,21.7C3720,20,3840,40,3960,53.3C4080,67,4200,73,4320,76.7C4440,80,4560,80,4680,66.7C4800,53,4920,27,5040,18.3C5160,10,5280,20,5400,21.7C5520,23,5640,17,5760,13.3C5880,10,6000,10,6120,10C6240,10,6360,10,6480,16.7C6600,23,6720,37,6840,35C6960,33,7080,17,7200,11.7C7320,7,7440,13,7560,18.3C7680,23,7800,27,7920,30C8040,33,8160,37,8280,35C8400,33,8520,27,8580,23.3L8640,20L8640,100L8580,100C8520,100,8400,100,8280,100C8160,100,8040,100,7920,100C7800,100,7680,100,7560,100C7440,100,7320,100,7200,100C7080,100,6960,100,6840,100C6720,100,6600,100,6480,100C6360,100,6240,100,6120,100C6000,100,5880,100,5760,100C5640,100,5520,100,5400,100C5280,100,5160,100,5040,100C4920,100,4800,100,4680,100C4560,100,4440,100,4320,100C4200,100,4080,100,3960,100C3840,100,3720,100,3600,100C3480,100,3360,100,3240,100C3120,100,3000,100,2880,100C2760,100,2640,100,2520,100C2400,100,2280,100,2160,100C2040,100,1920,100,1800,100C1680,100,1560,100,1440,100C1320,100,1200,100,1080,100C960,100,840,100,720,100C600,100,480,100,360,100C240,100,120,100,60,100L0,100Z"/></svg>