<?xml version="1.0" standalone="no"?>
<svg xmlns:xlink="http://www.w3.org/1999/xlink" id="wave" style="transform:rotate(0deg); transition: 0.3s" viewBox="0 0 1440 100" version="1.1" xmlns="http://www.w3.org/2000/svg"><defs><linearGradient id="sw-gradient-0" x1="0" x2="0" y1="1" y2="0"><stop stop-color="rgba(225, 120, 70, 1)" offset="0%"/><stop stop-color="rgba(225, 120, 70, 1)" offset="100%"/></linearGradient></defs><path style="transform:translate(0, 0px); opacity:1" fill="url(#sw-gradient-0)" d="M0,50L60,55C120,60,240,70,360,61.7C480,53,600,27,720,18.3C840,10,960,20,1080,33.3C1200,47,1320,63,1440,63.3C1560,63,1680,47,1800,36.7C1920,27,2040,23,2160,30C2280,37,2400,53,2520,58.3C2640,63,2760,57,2880,51.7C3000,47,3120,43,3240,35C3360,27,3480,13,3600,15C3720,17,3840,33,3960,45C4080,57,4200,63,4320,60C4440,57,4560,43,4680,35C4800,27,4920,23,5040,30C5160,37,5280,53,5400,51.7C5520,50,5640,30,5760,20C5880,10,6000,10,6120,16.7C6240,23,6360,37,6480,38.3C6600,40,6720,30,6840,23.3C6960,17,7080,13,7200,10C7320,7,7440,3,7560,13.3C7680,23,7800,47,7920,50C8040,53,8160,37,8280,30C8400,23,8520,27,8580,28.3L8640,30L8640,100L8580,100C8520,100,8400,100,8280,100C8160,100,8040,100,7920,100C7800,100,7680,100,7560,100C7440,100,7320,100,7200,100C7080,100,6960,100,6840,100C6720,100,6600,100,6480,100C6360,100,6240,100,6120,100C6000,100,5880,100,5760,100C5640,100,5520,100,5400,100C5280,100,5160,100,5040,100C4920,100,4800,100,4680,100C4560,100,4440,100,4320,100C4200,100,4080,100,3960,100C3840,100,3720,100,3600,100C3480,100,3360,100,3240,100C3120,100,3000,100,2880,100C2760,100,2640,100,2520,100C2400,100,2280,100,2160,100C2040,100,1920,100,1800,100C1680,100,1560,100,1440,100C1320,100,1200,100,1080,100C960,100,840,100,720,100C600,100,480,100,360,100C240,100,120,100,60,100L0,100Z"/></svg>