<svg id="visual" viewBox="0 0 960 540" width="960" height="540" xmlns="http://www.w3.org/2000/svg" xmlns:xlink="http://www.w3.org/1999/xlink" version="1.1"><path d="M0 485L26.7 484.3C53.3 483.7 106.7 482.3 160 478.8C213.3 475.3 266.7 469.7 320 470C373.3 470.3 426.7 476.7 480 484.3C533.3 492 586.7 501 640 502.5C693.3 504 746.7 498 800 497.8C853.3 497.7 906.7 503.3 933.3 506.2L960 509L960 541L933.3 541C906.7 541 853.3 541 800 541C746.7 541 693.3 541 640 541C586.7 541 533.3 541 480 541C426.7 541 373.3 541 320 541C266.7 541 213.3 541 160 541C106.7 541 53.3 541 26.7 541L0 541Z" fill="#E17846" stroke-linecap="round" stroke-linejoin="miter"></path></svg>