<svg id="visual" viewBox="0 0 960 540" width="960" height="540" xmlns="http://www.w3.org/2000/svg" xmlns:xlink="http://www.w3.org/1999/xlink" version="1.1"><rect x="0" y="0" width="960" height="540" fill="#D2E48C"></rect><path d="M0 30L40 34.3C80 38.7 160 47.3 240 54.8C320 62.3 400 68.7 480 66C560 63.3 640 51.7 720 51C800 50.3 880 60.7 920 65.8L960 71L960 0L920 0C880 0 800 0 720 0C640 0 560 0 480 0C400 0 320 0 240 0C160 0 80 0 40 0L0 0Z" fill="#E17846" stroke-linecap="round" stroke-linejoin="miter"></path></svg>